<svg version="1.2" xmlns="http://www.w3.org/2000/svg" viewBox="0 0 277 189" width="277" height="189">
	<title>7994863-ai</title>
	<style>
		tspan { white-space:pre } 
		.s0 { fill: #ff87ff } 
		.s1 { fill: #00a1e9 } 
		.s2 { fill: #ffa175 } 
		.s3 { opacity: .3;fill: #222229 } 
		.s4 { fill: none;stroke: #ffffff;stroke-miterlimit:10;stroke-width: 4 } 
	</style>
	<g id="OBJECTS">
		<g id="&lt;Group&gt;">
			<path id="&lt;Path&gt;" class="s0" d="m276.6 188.4l-67.3-13.3c-17.8 7.2-38.7 11.4-61 11.4-65.3 0-118.2-35.6-118.2-79.4q0-7.3 1.8-14.2c14.1 8.5 32.7 13.6 53.1 13.6 15 0 29-2.7 41-7.6l45.2 8.9-17.8-27.5c7-7.9 11.1-17.2 11.1-27.1q0-3.4-0.7-6.7c-1.2-6.7-4.3-13-8.9-18.6 62.3 2.3 111.7 36.9 111.7 79.2 0 12.1-4 23.6-11.3 33.9q-2.3 3.3-5.1 6.5z"/>
			<path id="&lt;Path&gt;" class="s1" d="m171.2 107.8l-45.2-8.9c-12 4.9-26 7.6-41 7.6-20.4 0-39-5.1-53.1-13.6 6.1-22.3 26-41.4 53.5-53 18.3-7.7 39.8-12.1 62.9-12.1q3.4 0 6.6 0.1c4.6 5.6 7.7 11.9 8.9 18.6q0.7 3.3 0.7 6.7c0 9.9-4.1 19.2-11.1 27.1z"/>
			<path id="&lt;Path&gt;" class="s2" d="m154.9 27.9q-3.2-0.1-6.6-0.1c-58.1 0-106.4 28.1-116.4 65.1-16.2-9.7-26.4-23.9-26.4-39.7 0-29.4 35.6-53.3 79.5-53.3 30.2 0 56.5 11.3 69.9 28z"/>
			<path id="&lt;Path&gt;" class="s3" d="m266.6 107.1c0 12.1-4 23.6-11.3 33.9-1.3-25.6-15.2-49.9-34.8-66.5-16.3-13.8-36-22.7-56.7-28-6.4-1.7-13-3-19.6-4-19.4-2.9-39.1-3.2-58.8-2.6 18.3-7.7 39.8-12.1 62.9-12.1q3.4 0 6.6 0.1c62.3 2.3 111.7 36.9 111.7 79.2z"/>
			<path id="&lt;Path&gt;" class="s4" d="m222.5 136.7c10.4-11.8 16.5-25.6 16.5-40.3 0-42.4-49.5-77-111.7-79.3q-3.3-0.1-6.6-0.1c-58.1 0-106.4 28.1-116.4 65.1q-1.9 7-1.9 14.3c0 43.8 53 79.3 118.3 79.3 22.3 0 43.1-4.1 60.9-11.3l67.3 13.2z"/>
		</g>
	</g>
	<g id="TEXTS">
	</g>
</svg>